<svg xmlns="http://www.w3.org/2000/svg" version="1.1" xmlns:xlink="http://www.w3.org/1999/xlink" xmlns:svgjs="http://svgjs.com/svgjs" width="512" height="512" x="0" y="0" viewBox="0 0 64 64" style="enable-background:new 0 0 512 512" xml:space="preserve" class=""><g><g xmlns="http://www.w3.org/2000/svg" id="_08-hamster" data-name="08-hamster"><path d="m39 39.68c0 3.49-1 6.32-7 6.32 1 0 4-2.24 4-5 0-8.03-1.68-14.58-3.79-14.98 3.77.35 6.79 10.24 6.79 13.66z" fill="#8f643f" data-original="#8f643f"></path><path d="m32 26v20c-1 0-4-2.24-4-5 0-8.03 1.68-14.58 3.79-14.98a1.492 1.492 0 0 1 .21-.02z" fill="#8f643f" data-original="#8f643f"></path><path d="m32.21 26.02c2.11.4 3.79 6.95 3.79 14.98 0 2.76-3 5-4 5v-20a1.492 1.492 0 0 1 .21.02z" fill="#593f27" data-original="#593f27" class=""></path><path d="m28 41c0 2.76 3 5 4 5-6 0-7-2.83-7-6.32 0-3.42 3.02-13.31 6.79-13.66-2.11.4-3.79 6.95-3.79 14.98z" fill="#593f27" data-original="#593f27" class=""></path><path d="m32.8 22.928a.985.985 0 0 1 -1.6 0l-1-1.33a1 1 0 0 1 .8-1.598h2a1.492 1.492 0 0 1 .21.02 1 1 0 0 1 .59 1.58z" fill="#8f643f" data-original="#8f643f"></path><path d="m41 5.317v3.683a2.006 2.006 0 0 1 -2 2 2.015 2.015 0 0 1 -2-2v-4.613a25.967 25.967 0 0 1 4 .93z" fill="#f2d1a5" data-original="#f2d1a5" class=""></path><path d="m34 4.057v7.943a2.006 2.006 0 0 1 -2 2 2.015 2.015 0 0 1 -2-2v-7.943c.66-.04 1.32-.06 2-.06s1.34.02 2 .06z" fill="#f2d1a5" data-original="#f2d1a5" class=""></path><path d="m27 4.387v4.613a2.006 2.006 0 0 1 -2 2 2.015 2.015 0 0 1 -2-2v-3.683a25.967 25.967 0 0 1 4-.93z" fill="#f2d1a5" data-original="#f2d1a5" class=""></path><path d="m53.96 61.93a7.565 7.565 0 0 0 2.89-3.01l.15.08 3.25 1.7a1.193 1.193 0 0 1 -.44 2.3l-5.81-1z" fill="#e3a76f" data-original="#e3a76f"></path><path d="m7.15 58.92a7.565 7.565 0 0 0 2.89 3.01l-.04.07-5.81 1a1.193 1.193 0 0 1 -.44-2.3l3.25-1.7z" fill="#e3a76f" data-original="#e3a76f"></path><path d="m20.91 41.319 3.77 3.77 1.17-1.38.15.12c.95 1.33 2.73 2.17 6 2.17s5.05-.84 6-2.17l.15-.12 1.17 1.38 3.77-3.77-2.13-1.8.04-.05a45.614 45.614 0 0 0 10.94-2.62l.06.151s6 11 6 17a10.164 10.164 0 0 1 -1.15 4.921 7.565 7.565 0 0 1 -2.89 3.01 7.724 7.724 0 0 1 -3.96 1.069h-1.26a17.6 17.6 0 0 1 -6.1-1.06 26.871 26.871 0 0 0 -10.64-1.94 26.871 26.871 0 0 0 -10.64 1.94 17.6 17.6 0 0 1 -6.1 1.06h-1.26a7.724 7.724 0 0 1 -3.96-1.07 7.565 7.565 0 0 1 -2.89-3.01 10.164 10.164 0 0 1 -1.15-4.92c0-6 6-17 6-17l.06-.15a45.614 45.614 0 0 0 10.94 2.619l.04.05z" fill="#f2d1a5" data-original="#f2d1a5" class=""></path><path d="m53 17a16.694 16.694 0 0 1 -9 3c-4.57 0-5.8-2.5-10.55-2.941-.45-.042-.93-.059-1.45-.059-6 0-7 3-12 3a16.694 16.694 0 0 1 -9-3c-4.22 1.4-8 5.681-8 10 0 4.3 3.48 7.63 9.06 9.851a45.614 45.614 0 0 0 10.94 2.618l.04.05 1.14-.97a2.184 2.184 0 0 1 1-.49l-.02-.059c.67-4.231 3.38-11.721 6.66-11.991.06 0 .12-.01.18-.01s.12.01.18.01a2.291 2.291 0 0 1 .84.23c2.89 1.31 5.21 7.89 5.82 11.761l-.02.06a2.184 2.184 0 0 1 1 .49l1.14.97.04-.05a45.614 45.614 0 0 0 10.94-2.62c5.58-2.222 9.06-5.55 9.06-9.85 0-4.322-3.78-8.6-8-10zm-19.2 4.6-1 1.33a.985.985 0 0 1 -1.6 0l-1-1.33a1 1 0 0 1 .8-1.6h2a1.492 1.492 0 0 1 .21.02 1 1 0 0 1 .59 1.58z" fill="#f2d1a5" data-original="#f2d1a5" class=""></path><path d="m53.6 13.337c-.39.45-.96 1.02-1.3 1.36a13.721 13.721 0 0 0 -2.3-3.72 5.63 5.63 0 0 1 5.7-5.97 9.126 9.126 0 0 1 -2.1 8.33z" fill="#f2d1a5" data-original="#f2d1a5" class=""></path><path d="m14 10.977a13.721 13.721 0 0 0 -2.3 3.72c-.34-.34-.91-.91-1.3-1.36a9.126 9.126 0 0 1 -2.1-8.33 5.63 5.63 0 0 1 5.7 5.97z" fill="#f2d1a5" data-original="#f2d1a5" class=""></path><path d="m18.83 3.737a5.445 5.445 0 0 1 1.14 2.78 17.852 17.852 0 0 0 -5.97 4.46 5.63 5.63 0 0 0 -5.7-5.97 5.857 5.857 0 0 1 1.22-2.28c2.33-2.651 6.49-2.201 9.31 1.01z" fill="#e3a76f" data-original="#e3a76f"></path><path d="m54.48 2.727a5.857 5.857 0 0 1 1.22 2.28 5.63 5.63 0 0 0 -5.7 5.97 17.852 17.852 0 0 0 -5.97-4.46 5.445 5.445 0 0 1 1.14-2.78c2.82-3.211 6.98-3.661 9.31-1.01z" fill="#e3a76f" data-original="#e3a76f"></path><path d="m52.3 14.7a13.721 13.721 0 0 0 -2.3-3.72 17.852 17.852 0 0 0 -5.97-4.46 21.476 21.476 0 0 0 -3.03-1.203v3.683a2.006 2.006 0 0 1 -2 2 2.015 2.015 0 0 1 -2-2v-4.613a28.671 28.671 0 0 0 -3-.33v7.943a2.006 2.006 0 0 1 -2 2 2.015 2.015 0 0 1 -2-2v-7.943a28.671 28.671 0 0 0 -3 .33v4.613a2.006 2.006 0 0 1 -2 2 2.015 2.015 0 0 1 -2-2v-3.683a21.476 21.476 0 0 0 -3.03 1.2 17.852 17.852 0 0 0 -5.97 4.46 13.721 13.721 0 0 0 -2.3 3.72 13 13 0 0 0 -.7 2.303 16.694 16.694 0 0 0 9 3c5 0 6-3 12-3 .52 0 1 .02 1.45.06 4.75.44 5.98 2.94 10.55 2.94a16.694 16.694 0 0 0 9-3 13 13 0 0 0 -.7-2.3z" fill="#e3a76f" data-original="#e3a76f"></path><path d="m41.612 15.419a1.379 1.379 0 0 0 -.989-.419h-.023a2.633 2.633 0 0 0 -1.762.848 2.6 2.6 0 0 0 -.838 1.775 1.354 1.354 0 0 0 .385.958 1.379 1.379 0 0 0 .989.416h.026a2.616 2.616 0 0 0 1.748-.834l.014-.014a2.6 2.6 0 0 0 .838-1.772 1.354 1.354 0 0 0 -.388-.958z" fill="#8f643f" data-original="#8f643f"></path><path d="m23.4 15h-.025a1.354 1.354 0 0 0 -.958.385 1.379 1.379 0 0 0 -.416.989 2.6 2.6 0 0 0 .833 1.773l.014.014a2.616 2.616 0 0 0 1.752.839h.025a1.354 1.354 0 0 0 .958-.385 1.379 1.379 0 0 0 .417-.992 2.922 2.922 0 0 0 -2.6-2.623z" fill="#8f643f" data-original="#8f643f"></path><path d="m31 20h2a1 1 0 0 1 .8 1.6l-1 1.33a.993.993 0 0 1 -1.6 0l-1-1.33a1 1 0 0 1 .8-1.6z" fill="#c48958" data-original="#c48958"></path><path d="m33.8 20.6-1 1.33a.993.993 0 0 1 -1.6 0l-1-1.33a1.105 1.105 0 0 1 -.055-.1.989.989 0 0 0 .055 1.1l1 1.33a.993.993 0 0 0 1.6 0l1-1.33a.989.989 0 0 0 .055-1.1 1.105 1.105 0 0 1 -.055.1z" fill="#b27a49" data-original="#b27a49"></path><path d="m36 23a1 1 0 0 0 -1 1 1 1 0 0 1 -2 0v-1.336l-.2.266a.993.993 0 0 1 -1.6 0l-.2-.266v1.336a1 1 0 0 1 -2 0 1 1 0 0 0 -2 0 3 3 0 0 0 5 2.234 3 3 0 0 0 5-2.234 1 1 0 0 0 -1-1z" fill="#c48958" data-original="#c48958"></path><ellipse cx="33.311" cy="21.102" fill="#f6fafd" rx=".413" ry=".574" transform="matrix(.707 -.707 .707 .707 -5.162 29.748)" data-original="#f6fafd"></ellipse><path d="m53.729 8.108a1.018 1.018 0 0 1 1.178.851 8.48 8.48 0 0 1 -.031 2.522 8.78 8.78 0 0 0 .824-6.474 5.566 5.566 0 0 0 -5.651 5.393 5.482 5.482 0 0 1 3.68-2.292z" fill="#e6c293" data-original="#e6c293"></path><path d="m55.48 4.727c.078.089.146.186.218.28a5.857 5.857 0 0 0 -1.22-2.28c-2.33-2.651-6.49-2.2-9.31 1.01a5.445 5.445 0 0 0 -1.14 2.78c.458.218.889.462 1.319.706a4.753 4.753 0 0 1 .821-1.486c2.822-3.211 6.982-3.661 9.312-1.01z" fill="#f5b57b" data-original="#f5b57b"></path><path d="m10.3 8.108a1.018 1.018 0 0 0 -1.178.851 8.48 8.48 0 0 0 .031 2.522 8.78 8.78 0 0 1 -.824-6.474 5.566 5.566 0 0 1 5.647 5.393 5.482 5.482 0 0 0 -3.676-2.292z" fill="#e6c293" data-original="#e6c293"></path><path d="m8.545 4.727c-.078.089-.146.186-.218.28a5.857 5.857 0 0 1 1.22-2.28c2.33-2.651 6.49-2.2 9.31 1.01a5.445 5.445 0 0 1 1.143 2.78c-.458.218-.889.462-1.319.706a4.753 4.753 0 0 0 -.821-1.486c-2.825-3.211-6.985-3.661-9.315-1.01z" fill="#f5b57b" data-original="#f5b57b"></path><g fill="#ffddb3"><path d="m39.448 8.217c.538.191 1.051.406 1.552.637v-3.537a25.967 25.967 0 0 0 -4-.93v3.157a20.016 20.016 0 0 1 2.448.673z" fill="#ffddb3" data-original="#ffddb3"></path><path d="m30.345 7.055c.546-.037 1.092-.055 1.655-.055s1.109.018 1.655.055c.117.008.229.023.345.033v-3.031c-.66-.04-1.32-.06-2-.06s-1.34.02-2 .06v3.031c.116-.01.228-.025.345-.033z" fill="#ffddb3" data-original="#ffddb3"></path><path d="m24.552 8.217a20.016 20.016 0 0 1 2.448-.673v-3.157a25.967 25.967 0 0 0 -4 .93v3.537c.5-.231 1.014-.446 1.552-.637z" fill="#ffddb3" data-original="#ffddb3"></path><path d="m53 17a16.958 16.958 0 0 1 -3.636 1.926c0 .023.011.044.015.067a10.572 10.572 0 0 1 6.621 9.219c0 3.966-2.88 7.037-7.5 9.085a32.983 32.983 0 0 1 -7.6 2.171l.059.051.04-.05a45.614 45.614 0 0 0 10.94-2.62c5.581-2.221 9.061-5.549 9.061-9.849 0-4.322-3.78-8.6-8-10z" fill="#ffddb3" data-original="#ffddb3"></path><path d="m8 28.212a10.572 10.572 0 0 1 6.621-9.222c0-.023.011-.044.015-.067a16.958 16.958 0 0 1 -3.636-1.923c-4.22 1.4-8 5.681-8 10 0 4.3 3.48 7.63 9.06 9.851a45.614 45.614 0 0 0 10.94 2.618l.04.05.059-.051a32.983 32.983 0 0 1 -7.599-2.168c-4.62-2.051-7.5-5.122-7.5-9.088z" fill="#ffddb3" data-original="#ffddb3"></path></g><path d="m36.138 7.36c.294.049.575.122.862.184v-3.157a28.671 28.671 0 0 0 -3-.33v3.031a20.9 20.9 0 0 1 2.138.272z" fill="#f5b57b" data-original="#f5b57b"></path><path d="m41.956 9.324a15.044 15.044 0 0 1 4.944 4.114 12.72 12.72 0 0 1 2.467 5.485 16.958 16.958 0 0 0 3.633-1.923 13 13 0 0 0 -.7-2.3 13.721 13.721 0 0 0 -2.3-3.72 17.852 17.852 0 0 0 -5.97-4.46 21.476 21.476 0 0 0 -3.03-1.203v3.537c.324.146.647.3.956.47z" fill="#f5b57b" data-original="#f5b57b"></path><path d="m15.2 16.868a12.991 12.991 0 0 1 1.9-3.43 15.044 15.044 0 0 1 4.941-4.114c.309-.17.632-.321.956-.47v-3.537a21.476 21.476 0 0 0 -3.03 1.2 17.852 17.852 0 0 0 -5.967 4.46 13.721 13.721 0 0 0 -2.3 3.72 13 13 0 0 0 -.7 2.303 16.958 16.958 0 0 0 3.636 1.926 13.015 13.015 0 0 1 .564-2.058z" fill="#f5b57b" data-original="#f5b57b"></path><path d="m27.862 7.36a20.9 20.9 0 0 1 2.138-.272v-3.031a28.671 28.671 0 0 0 -3 .33v3.157c.287-.062.568-.135.862-.184z" fill="#f5b57b" data-original="#f5b57b"></path><path d="m27.32 38.68a2.324 2.324 0 0 1 .13 3.14l-2.77 3.27-3.77-3.77 3.27-2.77a2.3 2.3 0 0 1 1.5-.55 2.326 2.326 0 0 1 1.64.68z" fill="#e3a76f" data-original="#e3a76f"></path><path d="m39.82 38.55 3.27 2.77-3.77 3.77-2.77-3.27a2.321 2.321 0 0 1 1.77-3.82 2.3 2.3 0 0 1 1.5.55z" fill="#e3a76f" data-original="#e3a76f"></path><path d="m24.68 45.09-3.448 4.08a1 1 0 0 1 -1.471.061l-2.992-2.992a1 1 0 0 1 .061-1.471l4.08-3.448z" fill="#ffddb3" data-original="#ffddb3"></path><path d="m47.231 46.239-2.992 2.992a1 1 0 0 1 -1.471-.061l-3.448-4.08 3.77-3.77 4.08 3.448a1 1 0 0 1 .061 1.471z" fill="#ffddb3" data-original="#ffddb3"></path><path d="m42.768 49.169-3.448-4.079-.356-.42-.7-.831-.11-.13-.15.12a4.519 4.519 0 0 1 -2.113 1.571 10.724 10.724 0 0 1 -3.891.6 10.724 10.724 0 0 1 -3.891-.6 4.519 4.519 0 0 1 -2.109-1.571l-.15-.12-.11.13-.7.831-.356.42-3.448 4.079a1 1 0 0 1 -1.471.062l2 2a1 1 0 0 0 1.471-.062l2.8-3.31c.947 1.31 2.722 2.141 5.964 2.141s5.017-.831 5.97-2.141l2.8 3.31a1 1 0 0 0 1.471.062l2-2a1 1 0 0 1 -1.473-.062z" fill="#e6c293" data-original="#e6c293"></path><path d="m27.32 38.68a2.326 2.326 0 0 0 -1.64-.68 2.3 2.3 0 0 0 -1.5.55l-3.27 2.77 1.083 1.08 2.187-1.85a2.3 2.3 0 0 1 1.5-.55 2.326 2.326 0 0 1 1.64.68 2.292 2.292 0 0 1 .444.638 2.317 2.317 0 0 0 -.444-2.638z" fill="#f5b57b" data-original="#f5b57b"></path><path d="m38.32 40a2.3 2.3 0 0 1 1.5.55l2.187 1.85 1.083-1.08-3.27-2.77a2.3 2.3 0 0 0 -1.5-.55 2.312 2.312 0 0 0 -2.084 3.318 2.292 2.292 0 0 1 .444-.638 2.326 2.326 0 0 1 1.64-.68z" fill="#f5b57b" data-original="#f5b57b"></path><path d="m21.993 42.4-1.083-1.08-4.079 3.448a1 1 0 0 0 -.062 1.471l.315.315 3.826-3.234z" fill="#ffebd1" data-original="#ffebd1"></path><path d="m43.09 43.32 3.826 3.234.315-.315a1 1 0 0 0 -.062-1.471l-4.079-3.448-1.083 1.08z" fill="#ffebd1" data-original="#ffebd1"></path><path d="m20.911 41.319.618-.522 1.511-1.28-.04-.048a50.583 50.583 0 0 1 -8.268-1.7c-.262.6-.657 1.522-1.1 2.636a44.963 44.963 0 0 0 6.456 1.613l.827-.7z" fill="#e6c293" data-original="#e6c293"></path><path d="m43.09 41.319.827.7a44.963 44.963 0 0 0 6.456-1.613c-.448-1.114-.843-2.038-1.1-2.636a50.583 50.583 0 0 1 -8.273 1.699l-.039.048 1.511 1.28z" fill="#e6c293" data-original="#e6c293"></path><path d="m10.973 58.92a11.69 11.69 0 0 1 -.973-4.92c0-3.886 2.127-9.86 3.627-13.593.448-1.114.843-2.038 1.1-2.636-.453-.137-.9-.279-1.33-.428l-.048-.016c-.442-.153-.875-.312-1.294-.477l-.055.15s-6 11-6 17a10.164 10.164 0 0 0 1.15 4.92 7.565 7.565 0 0 0 2.89 3.01 7.724 7.724 0 0 0 3.96 1.07h1.26c.326 0 .65-.023.975-.04a5.8 5.8 0 0 1 -2.817-1.03 7.164 7.164 0 0 1 -2.445-3.01z" fill="#ffddb3" data-original="#ffddb3"></path><path d="m53.187 39.316-.834-1.65c-.221-.425-.353-.666-.353-.666l-.06-.15c-.419.165-.852.324-1.294.477l-.048.016c-.432.149-.877.291-1.33.428.262.6.657 1.522 1.1 2.636 1.505 3.732 3.632 9.706 3.632 13.593a11.69 11.69 0 0 1 -.973 4.921 7.164 7.164 0 0 1 -2.445 3.01 5.8 5.8 0 0 1 -2.817 1.03c.325.017.649.04.975.04h1.26a7.724 7.724 0 0 0 3.96-1.07 7.565 7.565 0 0 0 2.89-3.01 10.164 10.164 0 0 0 1.15-4.921c0-4.289-3.064-11.129-4.813-14.684z" fill="#ffddb3" data-original="#ffddb3"></path><path d="m51.852 60.773a7.97 7.97 0 0 1 -1.852.227h-1.26a17.6 17.6 0 0 1 -6.1-1.06 26.871 26.871 0 0 0 -10.64-1.94 26.871 26.871 0 0 0 -10.64 1.94 17.6 17.6 0 0 1 -6.1 1.06h-1.26a7.97 7.97 0 0 1 -1.852-.227 6.574 6.574 0 0 0 1.27 1.157 5.8 5.8 0 0 0 2.817 1.03 17.391 17.391 0 0 0 5.125-1.02 26.871 26.871 0 0 1 10.64-1.94 26.871 26.871 0 0 1 10.64 1.94 17.391 17.391 0 0 0 5.125 1.02 5.8 5.8 0 0 0 2.817-1.03 6.574 6.574 0 0 0 1.27-1.157z" fill="#e6c293" data-original="#e6c293"></path><ellipse cx="57.258" cy="24.814" fill="#f6fafd" rx=".825" ry="1.148" transform="matrix(.707 -.707 .707 .707 -.768 47.775)" data-original="#f6fafd"></ellipse><ellipse cx="34.004" cy="31.314" fill="#f6fafd" rx=".413" ry=".574" transform="matrix(.707 -.707 .707 .707 -12.182 33.232)" data-original="#f6fafd"></ellipse><ellipse cx="54.26" cy="21.8" fill="#f6fafd" rx="1.642" ry="2.286" transform="matrix(.707 -.707 .707 .707 .485 44.771)" data-original="#f6fafd"></ellipse></g></g></svg>