<svg xmlns="http://www.w3.org/2000/svg" version="1.1" xmlns:xlink="http://www.w3.org/1999/xlink" xmlns:svgjs="http://svgjs.com/svgjs" width="512" height="512" x="0" y="0" viewBox="0 0 512 512" style="enable-background:new 0 0 512 512" xml:space="preserve" class=""><g><g xmlns="http://www.w3.org/2000/svg"><path d="m95.268 451.904 48.944 33.161c2.217 1.139 4.458 2.237 6.714 3.31l15.821 6.853c1.038.406 2.084.797 3.129 1.19l36.181 10.482c3.951.818 7.938 1.54 11.956 2.166l39.225 2.919c1.061-.005 2.118-.021 3.176-.04l22.868-1.464c.137-.015.273-.032.41-.047l163.615-90.388c33.591-41.934 53.694-95.139 53.694-153.047 0-135.311-109.691-245.002-245.002-245.002s-245.001 109.69-245.001 245.001c0 73.808 32.641 139.988 84.27 184.906z" fill="#47354f" data-original="#47354f" class=""></path><path d="m90.997 434.177c3.445 1.371 14.678 5.208 23.824 1.117 4.582-2.048 7.906-5.777 9.928-11.064-9.861-25.145-22.622-51.284-38.818-74.758-2.75-3.986-8.998-1.696-8.473 3.118 1.946 17.867 5.977 48.163 13.533 81.595z" fill="#88ce65" data-original="#88ce65" class=""></path><path d="m90.584 432.376c1.429 6.41 2.985 12.939 4.684 19.527 14.852 12.921 31.273 24.084 48.944 33.161-4.675-18.509-11.32-40.37-20.3-62.945-6.952 22.288-33.328 10.257-33.328 10.257z" fill="#6faf46" data-original="#6faf46" class=""></path><path d="m214.978 432.359c-16.05 19.484-32.163 41.42-45.102 64.058 11.666 4.381 23.749 7.907 36.182 10.482 3.945-4.907 8.08-10.244 12.314-15.957-2.466-19.977-3.354-40.162-3.394-58.583z" fill="#6faf46" data-original="#6faf46" class=""></path><path d="m273.193 369.789c-8.752 8.379-21.41 20.958-35.439 36.335 3.976 14.136 6.953 28.329 9.148 41.957 13.279-22.419 25.537-47.44 33.925-73.473 1.486-4.609-4.136-8.168-7.634-4.819z" fill="#88ce65" data-original="#88ce65" class=""></path><path d="m204.067 121.824c-11.581-8.298-28.624-4.527-37.039 8.369-15.714 24.084-8.71 46.352-8.71 46.352l6.434 5.948c72.866-25.709 59.667-46.088 39.315-60.669z" fill="#9181f2" data-original="#9181f2" class=""></path><path d="m89.563 156.977c5.251-12.131 20.61-17.271 33.462-11.029 24.002 11.655 29.063 32.715 29.063 32.715l-2.278 7.804c-70.244 14.344-69.475-8.172-60.247-29.49z" fill="#816ae2" data-original="#816ae2" class=""></path><path d="m107.259 80.463c.296.522 29.753 53.17 49.14 131.622 11.38 46.054 17.061 91.747 16.886 135.807-.195 49.083-7.727 96.251-22.363 140.481 5.179 2.462 10.454 4.753 15.825 6.855 15.526-46.374 23.518-95.827 23.723-147.268.182-45.471-5.669-92.573-17.388-139.997-19.945-80.715-49.607-133.736-50.86-135.953-1.813-3.208-5.379-4.793-8.817-4.253-2.164 1.551-4.296 3.143-6.407 4.763-1.171 2.445-1.174 5.403.261 7.943z" fill="#88ce65" data-original="#88ce65" class=""></path><ellipse cx="145.734" cy="149.718" fill="#a49bf9" rx="23.59" ry="40.922" transform="matrix(.942 -.336 .336 .942 -41.791 57.587)" data-original="#a49bf9" class=""></ellipse><path d="m149.478 66.49c.434 15.077-7.257 27.532-17.18 27.818s-18.318-11.705-18.753-26.783c-.434-15.078 7.257-27.532 17.18-27.818s18.319 11.705 18.753 26.783z" fill="#9181f2" data-original="#9181f2" class=""></path><ellipse cx="96.903" cy="81.601" fill="#816ae2" rx="17.974" ry="27.312" transform="matrix(.661 -.75 .75 .661 -28.389 100.332)" data-original="#816ae2" class=""></ellipse><path d="m240.443 221.293c-11.383-11.542-31.222-10.608-43.149 2.226-22.275 23.968-18.724 50.291-18.724 50.291l6.065 7.913c86.673-14.744 75.81-40.147 55.808-60.43z" fill="#9181f2" data-original="#9181f2" class=""></path><path d="m105.254 238.582c8.232-12.588 26.447-15.383 39.653-5.901 24.661 17.708 26.267 42.3 26.267 42.3l-4.063 8.311c-81.537 2.511-76.324-22.588-61.857-44.71z" fill="#816ae2" data-original="#816ae2" class=""></path><ellipse cx="169.642" cy="241.298" fill="#a49bf9" rx="26.842" ry="46.563" transform="matrix(.985 -.171 .171 .985 -38.701 32.501)" data-original="#a49bf9" class=""></ellipse><path d="m260.126 340.492c-10.304-14.355-31.826-16.706-46.842-4.904-28.042 22.041-28.673 50.988-28.673 50.988l5.192 9.547c95.83-1.212 88.431-30.405 70.323-55.631z" fill="#9181f2" data-original="#9181f2" class=""></path><path d="m111.624 336.235c10.995-12.163 31.082-12.09 43.699.356 23.56 23.241 21.128 49.995 21.128 49.995l-5.781 8.262c-88.229-11.095-78.368-37.24-59.046-58.613z" fill="#816ae2" data-original="#816ae2" class=""></path><ellipse cx="180.5" cy="350.054" fill="#a49bf9" rx="29.26" ry="50.756" transform="matrix(1 -.016 .016 1 -5.468 2.874)" data-original="#a49bf9" class=""></ellipse><ellipse cx="111.391" cy="68.753" fill="#a49bf9" rx="23.59" ry="35.847" transform="matrix(.897 -.442 .442 .897 -18.923 56.372)" data-original="#a49bf9" class=""></ellipse><path d="m232.377 456.485h.044c7.18 0 13.938-2.978 20.105-8.838-4.671-35.619-13.45-75.679-29.143-112.3-2.094-4.887-9.316-3.779-9.797 1.516-2.101 23.132-4.836 65.417-2.377 111.071 2.904 2.513 10.927 8.534 21.168 8.551z" fill="#b4d667" data-original="#b4d667" class=""></path><path d="m211.097 445.803c1.051 20.835 3.169 42.425 6.915 63.262 12.381 1.927 25.066 2.935 37.988 2.935.415 0 .826-.014 1.24-.016-.254-18.128-1.592-41.098-4.966-66.177-20.658 20.653-41.177-.004-41.177-.004z" fill="#88ce65" data-original="#88ce65" class=""></path><path d="m440.192 414.427c-18.475 8.33-49.885 23.41-83.195 43.453-.572 6.332-.082 15.322 5.365 22.681 1.342 1.813 2.925 3.415 4.719 4.829 31.188-15.894 58.527-38.257 80.226-65.345.736-3.735-3.065-7.444-7.115-5.618z" fill="#88ce65" data-original="#88ce65" class=""></path><path d="m283.692 510.433c30.309-3.41 58.934-12.362 84.861-25.797-10.308-7.662-10.793-20.142-9.93-27.733-25.403 15.192-52.02 33.3-74.931 53.53z" fill="#6faf46" data-original="#6faf46" class=""></path><path d="m404.96 115.873c-10.664-11.446-29.826-11.088-41.684.965-22.143 22.51-19.439 47.999-19.439 47.999l5.634 7.799c84.01-11.848 74.228-36.65 55.489-56.763z" fill="#9181f2" data-original="#9181f2" class=""></path><path d="m274.081 128.846c8.286-11.917 25.933-14.114 38.412-4.605 23.303 17.757 24.178 41.523 24.178 41.523l-4.147 7.905c-78.721.187-73.004-23.881-58.443-44.823z" fill="#816ae2" data-original="#816ae2" class=""></path><path d="m327.683 44.484c-1.617-4.954-6.943-7.659-11.895-6.045-4.954 1.616-7.661 6.941-6.045 11.895.205.627 20.479 63.69 24.311 152.34 2.248 52.041-1.558 102.456-11.314 149.841-11.946 58.023-32.924 111.635-62.325 159.429 7.716-.136 15.344-.63 22.87-1.464 27.015-46.748 46.483-98.526 57.938-154.16 10.069-48.903 13.999-100.871 11.683-154.46-3.942-91.208-24.356-154.718-25.223-157.376z" fill="#88ce65" data-original="#88ce65" class=""></path><ellipse cx="336.116" cy="133.23" fill="#a49bf9" rx="25.903" ry="44.934" transform="matrix(.99 -.143 .143 .99 -15.569 49.314)" data-original="#a49bf9" class=""></ellipse><path d="m358.218 44.461c-2.806 16.323-13.79 28.058-24.532 26.211s-17.175-16.576-14.369-32.899c2.807-16.323 13.79-28.058 24.532-26.211 10.743 1.846 17.176 16.576 14.369 32.899z" fill="#9181f2" data-original="#9181f2" class=""></path><ellipse cx="298.348" cy="49.309" fill="#816ae2" rx="19.736" ry="29.989" transform="matrix(.797 -.605 .605 .797 30.888 190.405)" data-original="#816ae2" class=""></ellipse><path d="m422.514 230.835c-9.746-14.895-31.302-18.198-46.927-6.973-29.18 20.962-31.073 50.065-31.073 50.065l4.81 9.834c96.491 2.949 90.316-26.752 73.19-52.926z" fill="#9181f2" data-original="#9181f2" class=""></path><path d="m273.25 220.089c11.594-11.762 31.807-10.815 43.962 2.259 22.699 24.415 19.087 51.233 19.087 51.233l-6.178 8.063c-88.307-15.003-77.245-40.886-56.871-61.555z" fill="#816ae2" data-original="#816ae2" class=""></path><path d="m371.426 237.804c-.777 28.226-14.597 50.745-30.869 50.297s-28.833-23.693-28.056-51.919 14.597-50.745 30.869-50.297 28.833 23.693 28.056 51.919z" fill="#a49bf9" data-original="#a49bf9" class=""></path><path d="m417.817 363.408c-7.974-17.689-30.628-24.892-49.353-15.449-34.969 17.635-41.933 48.654-41.933 48.654l3.516 11.403c103.408 19.503 101.783-13.525 87.77-44.608z" fill="#9181f2" data-original="#9181f2" class=""></path><path d="m258.902 326.58c14.475-10.704 36.081-6.264 46.957 9.871 20.312 30.131 11.885 58.4 11.885 58.4l-8.017 7.637c-92.553-31.098-76.262-57.099-50.825-75.908z" fill="#816ae2" data-original="#816ae2" class=""></path><ellipse cx="330.036" cy="356.41" fill="#a49bf9" rx="55.732" ry="32.128" transform="matrix(.182 -.983 .983 .182 -80.581 615.92)" data-original="#a49bf9" class=""></ellipse><path d="m341.769 31.988c5.572 21.012-1.121 41.018-14.949 44.685s-29.554-10.395-35.126-31.407 1.121-41.018 14.949-44.685c13.828-3.666 29.555 10.395 35.126 31.407z" fill="#a49bf9" data-original="#a49bf9" class=""></path><path d="m461.103 132.968c-14.284 16.891-33.111 45.868-14.24 74.847 28 43 10.082 83.973-7.945 102-15.322 15.322-10.048 55.835 29.941 78.569 20.451-35.784 32.144-77.218 32.144-121.386-.001-49.475-14.68-95.515-39.9-134.03z" fill="#56415e" data-original="#56415e"></path><path d="m206.162 81.79c31.974 3.411 48.547-28.131 44.951-59.732-30.551.598-59.729 6.788-86.557 17.59 5.185 16.623 16.775 39.493 41.606 42.142z" fill="#56415e" data-original="#56415e"></path><path d="m25.849 351.194c61.871-29.049 52.702-94.68 44.513-134.017-4.513-21.682-22.795-35.48-40.744-43.995-11.99 28.898-18.62 60.581-18.62 93.816 0 29.583 5.244 57.941 14.851 84.196z" fill="#56415e" data-original="#56415e"></path><g fill="#a49bf9"><ellipse cx="389.372" cy="378.823" rx="17.786" ry="17.786" transform="matrix(.161 -.987 .987 .161 -47.222 702.092)" fill="#a49bf9" data-original="#a49bf9" class=""></ellipse><circle cx="400.94" cy="241.551" r="14.449" fill="#a49bf9" data-original="#a49bf9" class=""></circle><circle cx="220.082" cy="241.298" r="14.449" fill="#a49bf9" data-original="#a49bf9" class=""></circle><ellipse cx="388.095" cy="129.371" rx="11.064" ry="11.064" transform="matrix(.16 -.987 .987 .16 198.431 491.837)" fill="#a49bf9" data-original="#a49bf9" class=""></ellipse><ellipse cx="190.474" cy="140.435" rx="11.064" ry="11.064" transform="matrix(.925 -.38 .38 .925 -39.084 82.943)" fill="#a49bf9" data-original="#a49bf9" class=""></ellipse></g></g></g></svg>